<svg width="165" height="34" viewBox="0 0 165 34" fill="none" xmlns="http://www.w3.org/2000/svg">
<path d="M7.73113 0.535999V1.8H2.21913V5.608H6.68313V6.824H2.21913V10.736H7.73913L7.73113 12H0.667125V0.535999H7.73113ZM11.4615 7.848L8.7335 3.896H10.1015C10.2188 3.896 10.3042 3.91467 10.3575 3.952C10.4108 3.98933 10.4588 4.04267 10.5015 4.112L12.4855 7.152C12.5335 7.00267 12.6028 6.85333 12.6935 6.704L14.4375 4.144C14.4855 4.06933 14.5362 4.01067 14.5895 3.968C14.6482 3.92 14.7175 3.896 14.7975 3.896H16.1095L13.3815 7.768L16.2215 12H14.8535C14.7362 12 14.6428 11.9707 14.5735 11.912C14.5095 11.848 14.4562 11.7787 14.4135 11.704L12.3735 8.528C12.3362 8.68267 12.2802 8.82133 12.2055 8.944L10.3175 11.704C10.2642 11.7787 10.2055 11.848 10.1415 11.912C10.0828 11.9707 10.0002 12 9.8935 12H8.6215L11.4615 7.848ZM22.8149 5.336C22.7722 5.39467 22.7295 5.44 22.6869 5.472C22.6442 5.504 22.5855 5.52 22.5109 5.52C22.4309 5.52 22.3429 5.488 22.2469 5.424C22.1509 5.35467 22.0309 5.28 21.8869 5.2C21.7482 5.12 21.5749 5.048 21.3669 4.984C21.1642 4.91467 20.9135 4.88 20.6149 4.88C20.2149 4.88 19.8629 4.952 19.5589 5.096C19.2549 5.23467 18.9989 5.43733 18.7909 5.704C18.5882 5.97067 18.4335 6.29333 18.3269 6.672C18.2255 7.05067 18.1749 7.47467 18.1749 7.944C18.1749 8.43467 18.2309 8.872 18.3429 9.256C18.4549 9.63467 18.6122 9.95467 18.8149 10.216C19.0229 10.472 19.2709 10.6693 19.5589 10.808C19.8522 10.9413 20.1802 11.008 20.5429 11.008C20.8895 11.008 21.1749 10.968 21.3989 10.888C21.6229 10.8027 21.8069 10.7093 21.9509 10.608C22.1002 10.5067 22.2229 10.416 22.3189 10.336C22.4202 10.2507 22.5189 10.208 22.6149 10.208C22.7322 10.208 22.8229 10.2533 22.8869 10.344L23.2869 10.864C23.1109 11.0827 22.9109 11.2693 22.6869 11.424C22.4629 11.5787 22.2202 11.7093 21.9589 11.816C21.7029 11.9173 21.4335 11.992 21.1509 12.04C20.8682 12.088 20.5802 12.112 20.2869 12.112C19.7802 12.112 19.3082 12.0187 18.8709 11.832C18.4389 11.6453 18.0629 11.376 17.7429 11.024C17.4229 10.6667 17.1722 10.2293 16.9909 9.712C16.8095 9.19467 16.7189 8.60533 16.7189 7.944C16.7189 7.34133 16.8015 6.784 16.9669 6.272C17.1375 5.76 17.3829 5.32 17.7029 4.952C18.0282 4.57867 18.4255 4.288 18.8949 4.08C19.3695 3.872 19.9135 3.768 20.5269 3.768C21.0975 3.768 21.5989 3.86133 22.0309 4.048C22.4682 4.22933 22.8549 4.488 23.1909 4.824L22.8149 5.336ZM27.9949 3.768C28.4802 3.768 28.9282 3.85067 29.3389 4.016C29.7549 4.176 30.1122 4.41067 30.4109 4.72C30.7149 5.024 30.9522 5.40267 31.1229 5.856C31.2935 6.304 31.3789 6.816 31.3789 7.392C31.3789 7.616 31.3549 7.76533 31.3069 7.84C31.2589 7.91467 31.1682 7.952 31.0349 7.952H25.6189C25.6295 8.464 25.6989 8.90933 25.8269 9.288C25.9549 9.66667 26.1309 9.984 26.3549 10.24C26.5789 10.4907 26.8455 10.68 27.1549 10.808C27.4642 10.9307 27.8109 10.992 28.1949 10.992C28.5522 10.992 28.8589 10.952 29.1149 10.872C29.3762 10.7867 29.6002 10.696 29.7869 10.6C29.9735 10.504 30.1282 10.416 30.2509 10.336C30.3789 10.2507 30.4882 10.208 30.5789 10.208C30.6962 10.208 30.7869 10.2533 30.8509 10.344L31.2509 10.864C31.0749 11.0773 30.8642 11.264 30.6189 11.424C30.3735 11.5787 30.1095 11.7067 29.8269 11.808C29.5495 11.9093 29.2615 11.984 28.9629 12.032C28.6642 12.0853 28.3682 12.112 28.0749 12.112C27.5149 12.112 26.9975 12.0187 26.5229 11.832C26.0535 11.64 25.6455 11.3627 25.2989 11C24.9575 10.632 24.6909 10.1787 24.4989 9.64C24.3069 9.10133 24.2109 8.48267 24.2109 7.784C24.2109 7.21867 24.2962 6.69067 24.4669 6.2C24.6429 5.70933 24.8935 5.28533 25.2189 4.928C25.5442 4.56533 25.9415 4.28267 26.4109 4.08C26.8802 3.872 27.4082 3.768 27.9949 3.768ZM28.0269 4.816C27.3389 4.816 26.7975 5.016 26.4029 5.416C26.0082 5.81067 25.7629 6.36 25.6669 7.064H30.0989C30.0989 6.73333 30.0509 6.432 29.9549 6.16C29.8642 5.88267 29.7282 5.64533 29.5469 5.448C29.3709 5.24533 29.1549 5.09067 28.8989 4.984C28.6429 4.872 28.3522 4.816 28.0269 4.816ZM33.128 14.744V3.896H33.984C34.1867 3.896 34.312 3.99467 34.36 4.192L34.48 5.152C34.8267 4.73067 35.224 4.392 35.672 4.136C36.12 3.88 36.632 3.752 37.208 3.752C37.6773 3.752 38.1013 3.84267 38.48 4.024C38.8587 4.2 39.1813 4.464 39.448 4.816C39.7147 5.16267 39.92 5.59467 40.064 6.112C40.208 6.62933 40.28 7.224 40.28 7.896C40.28 8.49333 40.2 9.05067 40.04 9.568C39.88 10.08 39.648 10.5253 39.344 10.904C39.0453 11.2773 38.6773 11.5733 38.24 11.792C37.808 12.0053 37.32 12.112 36.776 12.112C36.28 12.112 35.8533 12.0293 35.496 11.864C35.144 11.6987 34.832 11.464 34.56 11.16V14.744H33.128ZM36.744 4.904C36.28 4.904 35.872 5.01067 35.52 5.224C35.1733 5.43733 34.8533 5.73867 34.56 6.128V10.048C34.816 10.4 35.0987 10.648 35.408 10.792C35.7227 10.936 36.072 11.008 36.456 11.008C37.2133 11.008 37.7947 10.7387 38.2 10.2C38.6053 9.66133 38.808 8.89333 38.808 7.896C38.808 7.368 38.76 6.91467 38.664 6.536C38.5733 6.15733 38.44 5.848 38.264 5.608C38.088 5.36267 37.872 5.184 37.616 5.072C37.36 4.96 37.0693 4.904 36.744 4.904ZM44.4754 12.128C43.8354 12.128 43.342 11.9493 42.9954 11.592C42.654 11.2347 42.4834 10.72 42.4834 10.048V5.088H41.5074C41.422 5.088 41.35 5.064 41.2914 5.016C41.2327 4.96267 41.2034 4.88267 41.2034 4.776V4.208L42.5314 4.04L42.8594 1.536C42.8754 1.456 42.91 1.392 42.9634 1.344C43.022 1.29067 43.0967 1.264 43.1874 1.264H43.9074V4.056H46.2514V5.088H43.9074V9.952C43.9074 10.2933 43.99 10.5467 44.1554 10.712C44.3207 10.8773 44.534 10.96 44.7954 10.96C44.9447 10.96 45.0727 10.9413 45.1794 10.904C45.2914 10.8613 45.3874 10.816 45.4674 10.768C45.5474 10.72 45.614 10.6773 45.6674 10.64C45.726 10.5973 45.7767 10.576 45.8194 10.576C45.894 10.576 45.9607 10.6213 46.0194 10.712L46.4354 11.392C46.19 11.6213 45.894 11.8027 45.5474 11.936C45.2007 12.064 44.8434 12.128 44.4754 12.128ZM51.0418 3.768C51.5271 3.768 51.9751 3.85067 52.3858 4.016C52.8018 4.176 53.1591 4.41067 53.4578 4.72C53.7618 5.024 53.9991 5.40267 54.1698 5.856C54.3404 6.304 54.4258 6.816 54.4258 7.392C54.4258 7.616 54.4018 7.76533 54.3538 7.84C54.3058 7.91467 54.2151 7.952 54.0818 7.952H48.6658C48.6764 8.464 48.7458 8.90933 48.8738 9.288C49.0018 9.66667 49.1778 9.984 49.4018 10.24C49.6258 10.4907 49.8924 10.68 50.2018 10.808C50.5111 10.9307 50.8578 10.992 51.2418 10.992C51.5991 10.992 51.9058 10.952 52.1618 10.872C52.4231 10.7867 52.6471 10.696 52.8338 10.6C53.0204 10.504 53.1751 10.416 53.2978 10.336C53.4258 10.2507 53.5351 10.208 53.6258 10.208C53.7431 10.208 53.8338 10.2533 53.8978 10.344L54.2978 10.864C54.1218 11.0773 53.9111 11.264 53.6658 11.424C53.4204 11.5787 53.1564 11.7067 52.8738 11.808C52.5964 11.9093 52.3084 11.984 52.0098 12.032C51.7111 12.0853 51.4151 12.112 51.1218 12.112C50.5618 12.112 50.0444 12.0187 49.5698 11.832C49.1004 11.64 48.6924 11.3627 48.3458 11C48.0044 10.632 47.7378 10.1787 47.5458 9.64C47.3538 9.10133 47.2578 8.48267 47.2578 7.784C47.2578 7.21867 47.3431 6.69067 47.5138 6.2C47.6898 5.70933 47.9404 5.28533 48.2658 4.928C48.5911 4.56533 48.9884 4.28267 49.4578 4.08C49.9271 3.872 50.4551 3.768 51.0418 3.768ZM51.0738 4.816C50.3858 4.816 49.8444 5.016 49.4498 5.416C49.0551 5.81067 48.8098 6.36 48.7138 7.064H53.1458C53.1458 6.73333 53.0978 6.432 53.0018 6.16C52.9111 5.88267 52.7751 5.64533 52.5938 5.448C52.4178 5.24533 52.2018 5.09067 51.9458 4.984C51.6898 4.872 51.3991 4.816 51.0738 4.816ZM57.5189 3.896V9.064C57.5189 9.67733 57.6575 10.152 57.9349 10.488C58.2175 10.824 58.6469 10.992 59.2229 10.992C59.6389 10.992 60.0309 10.8933 60.3989 10.696C60.7669 10.4987 61.1055 10.224 61.4149 9.872V3.896H62.8389V12H61.9909C61.7882 12 61.6602 11.9013 61.6069 11.704L61.4949 10.832C61.1429 11.2213 60.7482 11.536 60.3109 11.776C59.8735 12.0107 59.3722 12.128 58.8069 12.128C58.3642 12.128 57.9722 12.056 57.6309 11.912C57.2949 11.7627 57.0122 11.5547 56.7829 11.288C56.5535 11.0213 56.3802 10.6987 56.2629 10.32C56.1509 9.94133 56.0949 9.52267 56.0949 9.064V3.896H57.5189ZM65.0968 12V3.896H65.9128C66.0674 3.896 66.1741 3.92533 66.2328 3.984C66.2914 4.04267 66.3314 4.144 66.3528 4.288L66.4408 5.52C66.6968 4.96533 67.0114 4.53333 67.3848 4.224C67.7634 3.90933 68.2221 3.752 68.7608 3.752C68.9314 3.752 69.0941 3.77067 69.2488 3.808C69.4088 3.84533 69.5501 3.904 69.6728 3.984L69.5688 5.048C69.5368 5.18133 69.4568 5.248 69.3288 5.248C69.2541 5.248 69.1448 5.232 69.0008 5.2C68.8568 5.168 68.6941 5.152 68.5128 5.152C68.2568 5.152 68.0274 5.192 67.8248 5.272C67.6221 5.34667 67.4408 5.45867 67.2808 5.608C67.1261 5.752 66.9874 5.93067 66.8648 6.144C66.7421 6.35733 66.6301 6.60267 66.5288 6.88V12H65.0968ZM79.3949 5.232C79.3309 5.34933 79.2322 5.408 79.0989 5.408C79.0189 5.408 78.9282 5.37867 78.8269 5.32C78.7255 5.26133 78.6002 5.19733 78.4509 5.128C78.3069 5.05333 78.1335 4.98667 77.9309 4.928C77.7282 4.864 77.4882 4.832 77.2109 4.832C76.9709 4.832 76.7549 4.864 76.5629 4.928C76.3709 4.98667 76.2055 5.06933 76.0669 5.176C75.9335 5.28267 75.8295 5.408 75.7549 5.552C75.6855 5.69067 75.6509 5.84267 75.6509 6.008C75.6509 6.216 75.7095 6.38933 75.8269 6.528C75.9495 6.66667 76.1095 6.78667 76.3069 6.888C76.5042 6.98933 76.7282 7.08 76.9789 7.16C77.2295 7.23467 77.4855 7.31733 77.7469 7.408C78.0135 7.49333 78.2722 7.58933 78.5229 7.696C78.7735 7.80267 78.9975 7.936 79.1949 8.096C79.3922 8.256 79.5495 8.45333 79.6669 8.688C79.7895 8.91733 79.8509 9.19467 79.8509 9.52C79.8509 9.89333 79.7842 10.24 79.6509 10.56C79.5175 10.8747 79.3202 11.1493 79.0589 11.384C78.7975 11.6133 78.4775 11.7947 78.0989 11.928C77.7202 12.0613 77.2829 12.128 76.7869 12.128C76.2215 12.128 75.7095 12.0373 75.2509 11.856C74.7922 11.6693 74.4029 11.432 74.0829 11.144L74.4189 10.6C74.4615 10.5307 74.5122 10.4773 74.5709 10.44C74.6295 10.4027 74.7042 10.384 74.7949 10.384C74.8909 10.384 74.9922 10.4213 75.0989 10.496C75.2055 10.5707 75.3335 10.6533 75.4829 10.744C75.6375 10.8347 75.8242 10.9173 76.0429 10.992C76.2615 11.0667 76.5335 11.104 76.8589 11.104C77.1362 11.104 77.3789 11.0693 77.5869 11C77.7949 10.9253 77.9682 10.8267 78.1069 10.704C78.2455 10.5813 78.3469 10.44 78.4109 10.28C78.4802 10.12 78.5149 9.94933 78.5149 9.768C78.5149 9.544 78.4535 9.36 78.3309 9.216C78.2135 9.06667 78.0562 8.94133 77.8589 8.84C77.6615 8.73333 77.4349 8.64267 77.1789 8.568C76.9282 8.488 76.6695 8.40533 76.4029 8.32C76.1415 8.23467 75.8829 8.13867 75.6269 8.032C75.3762 7.92 75.1522 7.78133 74.9549 7.616C74.7575 7.45067 74.5975 7.248 74.4749 7.008C74.3575 6.76267 74.2989 6.46667 74.2989 6.12C74.2989 5.81067 74.3629 5.51467 74.4909 5.232C74.6189 4.944 74.8055 4.69333 75.0509 4.48C75.2962 4.26133 75.5975 4.088 75.9549 3.96C76.3122 3.832 76.7202 3.768 77.1789 3.768C77.7122 3.768 78.1895 3.85333 78.6109 4.024C79.0375 4.18933 79.4055 4.41867 79.7149 4.712L79.3949 5.232ZM83.1008 3.896V12H81.6768V3.896H83.1008ZM83.4048 1.352C83.4048 1.49067 83.3754 1.62133 83.3168 1.744C83.2634 1.86133 83.1888 1.968 83.0928 2.064C83.0021 2.15467 82.8928 2.22667 82.7648 2.28C82.6421 2.33333 82.5114 2.36 82.3728 2.36C82.2341 2.36 82.1034 2.33333 81.9808 2.28C81.8634 2.22667 81.7594 2.15467 81.6688 2.064C81.5781 1.968 81.5061 1.86133 81.4528 1.744C81.3994 1.62133 81.3728 1.49067 81.3728 1.352C81.3728 1.21333 81.3994 1.08267 81.4528 0.959999C81.5061 0.831999 81.5781 0.722666 81.6688 0.631999C81.7594 0.536 81.8634 0.461333 81.9808 0.407999C82.1034 0.354666 82.2341 0.327999 82.3728 0.327999C82.5114 0.327999 82.6421 0.354666 82.7648 0.407999C82.8928 0.461333 83.0021 0.536 83.0928 0.631999C83.1888 0.722666 83.2634 0.831999 83.3168 0.959999C83.3754 1.08267 83.4048 1.21333 83.4048 1.352ZM85.4405 12V3.896H86.2965C86.4992 3.896 86.6245 3.99467 86.6725 4.192L86.7845 5.072C87.1365 4.68267 87.5312 4.368 87.9685 4.128C88.4058 3.888 88.9098 3.768 89.4805 3.768C89.9232 3.768 90.3125 3.84267 90.6485 3.992C90.9898 4.136 91.2725 4.344 91.4965 4.616C91.7258 4.88267 91.8992 5.20533 92.0165 5.584C92.1338 5.96267 92.1925 6.38133 92.1925 6.84V12H90.7605V6.84C90.7605 6.22667 90.6192 5.752 90.3365 5.416C90.0592 5.07467 89.6352 4.904 89.0645 4.904C88.6378 4.904 88.2405 5.00533 87.8725 5.208C87.5098 5.41067 87.1765 5.68533 86.8725 6.032V12H85.4405ZM96.741 12.128C96.101 12.128 95.6077 11.9493 95.261 11.592C94.9197 11.2347 94.749 10.72 94.749 10.048V5.088H93.773C93.6877 5.088 93.6157 5.064 93.557 5.016C93.4983 4.96267 93.469 4.88267 93.469 4.776V4.208L94.797 4.04L95.125 1.536C95.141 1.456 95.1757 1.392 95.229 1.344C95.2877 1.29067 95.3623 1.264 95.453 1.264H96.173V4.056H98.517V5.088H96.173V9.952C96.173 10.2933 96.2557 10.5467 96.421 10.712C96.5863 10.8773 96.7997 10.96 97.061 10.96C97.2103 10.96 97.3383 10.9413 97.445 10.904C97.557 10.8613 97.653 10.816 97.733 10.768C97.813 10.72 97.8797 10.6773 97.933 10.64C97.9917 10.5973 98.0423 10.576 98.085 10.576C98.1597 10.576 98.2263 10.6213 98.285 10.712L98.701 11.392C98.4557 11.6213 98.1597 11.8027 97.813 11.936C97.4663 12.064 97.109 12.128 96.741 12.128ZM107.497 3.768C108.089 3.768 108.622 3.86667 109.097 4.064C109.572 4.26133 109.977 4.54133 110.313 4.904C110.649 5.26667 110.905 5.70667 111.081 6.224C111.262 6.736 111.353 7.30933 111.353 7.944C111.353 8.584 111.262 9.16 111.081 9.672C110.905 10.184 110.649 10.6213 110.313 10.984C109.977 11.3467 109.572 11.6267 109.097 11.824C108.622 12.016 108.089 12.112 107.497 12.112C106.9 12.112 106.361 12.016 105.881 11.824C105.406 11.6267 105.001 11.3467 104.665 10.984C104.329 10.6213 104.07 10.184 103.889 9.672C103.713 9.16 103.625 8.584 103.625 7.944C103.625 7.30933 103.713 6.736 103.889 6.224C104.07 5.70667 104.329 5.26667 104.665 4.904C105.001 4.54133 105.406 4.26133 105.881 4.064C106.361 3.86667 106.9 3.768 107.497 3.768ZM107.497 11C108.297 11 108.894 10.7333 109.289 10.2C109.684 9.66133 109.881 8.912 109.881 7.952C109.881 6.98667 109.684 6.23467 109.289 5.696C108.894 5.15733 108.297 4.888 107.497 4.888C107.092 4.888 106.737 4.95733 106.433 5.096C106.134 5.23467 105.884 5.43467 105.681 5.696C105.484 5.95733 105.334 6.28 105.233 6.664C105.137 7.04267 105.089 7.472 105.089 7.952C105.089 8.912 105.286 9.66133 105.681 10.2C106.081 10.7333 106.686 11 107.497 11ZM118.799 5.336C118.757 5.39467 118.714 5.44 118.671 5.472C118.629 5.504 118.57 5.52 118.495 5.52C118.415 5.52 118.327 5.488 118.231 5.424C118.135 5.35467 118.015 5.28 117.871 5.2C117.733 5.12 117.559 5.048 117.351 4.984C117.149 4.91467 116.898 4.88 116.599 4.88C116.199 4.88 115.847 4.952 115.543 5.096C115.239 5.23467 114.983 5.43733 114.775 5.704C114.573 5.97067 114.418 6.29333 114.311 6.672C114.21 7.05067 114.159 7.47467 114.159 7.944C114.159 8.43467 114.215 8.872 114.327 9.256C114.439 9.63467 114.597 9.95467 114.799 10.216C115.007 10.472 115.255 10.6693 115.543 10.808C115.837 10.9413 116.165 11.008 116.527 11.008C116.874 11.008 117.159 10.968 117.383 10.888C117.607 10.8027 117.791 10.7093 117.935 10.608C118.085 10.5067 118.207 10.416 118.303 10.336C118.405 10.2507 118.503 10.208 118.599 10.208C118.717 10.208 118.807 10.2533 118.871 10.344L119.271 10.864C119.095 11.0827 118.895 11.2693 118.671 11.424C118.447 11.5787 118.205 11.7093 117.943 11.816C117.687 11.9173 117.418 11.992 117.135 12.04C116.853 12.088 116.565 12.112 116.271 12.112C115.765 12.112 115.293 12.0187 114.855 11.832C114.423 11.6453 114.047 11.376 113.727 11.024C113.407 10.6667 113.157 10.2293 112.975 9.712C112.794 9.19467 112.703 8.60533 112.703 7.944C112.703 7.34133 112.786 6.784 112.951 6.272C113.122 5.76 113.367 5.32 113.687 4.952C114.013 4.57867 114.41 4.288 114.879 4.08C115.354 3.872 115.898 3.768 116.511 3.768C117.082 3.768 117.583 3.86133 118.015 4.048C118.453 4.22933 118.839 4.488 119.175 4.824L118.799 5.336ZM126.299 5.336C126.257 5.39467 126.214 5.44 126.171 5.472C126.129 5.504 126.07 5.52 125.995 5.52C125.915 5.52 125.827 5.488 125.731 5.424C125.635 5.35467 125.515 5.28 125.371 5.2C125.233 5.12 125.059 5.048 124.851 4.984C124.649 4.91467 124.398 4.88 124.099 4.88C123.699 4.88 123.347 4.952 123.043 5.096C122.739 5.23467 122.483 5.43733 122.275 5.704C122.073 5.97067 121.918 6.29333 121.811 6.672C121.71 7.05067 121.659 7.47467 121.659 7.944C121.659 8.43467 121.715 8.872 121.827 9.256C121.939 9.63467 122.097 9.95467 122.299 10.216C122.507 10.472 122.755 10.6693 123.043 10.808C123.337 10.9413 123.665 11.008 124.027 11.008C124.374 11.008 124.659 10.968 124.883 10.888C125.107 10.8027 125.291 10.7093 125.435 10.608C125.585 10.5067 125.707 10.416 125.803 10.336C125.905 10.2507 126.003 10.208 126.099 10.208C126.217 10.208 126.307 10.2533 126.371 10.344L126.771 10.864C126.595 11.0827 126.395 11.2693 126.171 11.424C125.947 11.5787 125.705 11.7093 125.443 11.816C125.187 11.9173 124.918 11.992 124.635 12.04C124.353 12.088 124.065 12.112 123.771 12.112C123.265 12.112 122.793 12.0187 122.355 11.832C121.923 11.6453 121.547 11.376 121.227 11.024C120.907 10.6667 120.657 10.2293 120.475 9.712C120.294 9.19467 120.203 8.60533 120.203 7.944C120.203 7.34133 120.286 6.784 120.451 6.272C120.622 5.76 120.867 5.32 121.187 4.952C121.513 4.57867 121.91 4.288 122.379 4.08C122.854 3.872 123.398 3.768 124.011 3.768C124.582 3.768 125.083 3.86133 125.515 4.048C125.953 4.22933 126.339 4.488 126.675 4.824L126.299 5.336ZM133.452 12C133.313 12 133.207 11.9787 133.132 11.936C133.057 11.888 132.999 11.7973 132.956 11.664L132.796 10.904C132.583 11.096 132.372 11.2693 132.164 11.424C131.961 11.5733 131.748 11.7013 131.524 11.808C131.305 11.9093 131.068 11.9867 130.812 12.04C130.561 12.0987 130.281 12.128 129.972 12.128C129.657 12.128 129.361 12.0853 129.084 12C128.807 11.9093 128.564 11.776 128.356 11.6C128.153 11.424 127.991 11.2027 127.868 10.936C127.751 10.664 127.692 10.344 127.692 9.976C127.692 9.656 127.78 9.34933 127.956 9.056C128.132 8.75733 128.417 8.49333 128.812 8.264C129.207 8.03467 129.721 7.848 130.356 7.704C130.991 7.55467 131.769 7.46933 132.692 7.448V6.816C132.692 6.18667 132.556 5.712 132.284 5.392C132.012 5.06667 131.615 4.904 131.092 4.904C130.74 4.904 130.444 4.94933 130.204 5.04C129.969 5.12533 129.764 5.224 129.588 5.336C129.417 5.44267 129.268 5.54133 129.14 5.632C129.017 5.71733 128.895 5.76 128.772 5.76C128.676 5.76 128.593 5.736 128.524 5.688C128.455 5.63467 128.396 5.57067 128.348 5.496L128.092 5.04C128.54 4.608 129.023 4.28533 129.54 4.072C130.057 3.85867 130.631 3.752 131.26 3.752C131.713 3.752 132.116 3.82667 132.468 3.976C132.82 4.12533 133.116 4.33333 133.356 4.6C133.596 4.86667 133.777 5.18933 133.9 5.568C134.023 5.94667 134.084 6.36267 134.084 6.816V12H133.452ZM130.396 11.128C130.647 11.128 130.876 11.104 131.084 11.056C131.292 11.0027 131.487 10.9307 131.668 10.84C131.855 10.744 132.031 10.6293 132.196 10.496C132.367 10.3573 132.532 10.2027 132.692 10.032V8.352C132.036 8.37333 131.476 8.42667 131.012 8.512C130.553 8.592 130.177 8.69867 129.884 8.832C129.596 8.96533 129.385 9.12267 129.252 9.304C129.124 9.48533 129.06 9.688 129.06 9.912C129.06 10.1253 129.095 10.3093 129.164 10.464C129.233 10.6187 129.327 10.7467 129.444 10.848C129.567 10.944 129.708 11.016 129.868 11.064C130.033 11.1067 130.209 11.128 130.396 11.128ZM139.573 3.768C140.058 3.768 140.506 3.85067 140.917 4.016C141.333 4.176 141.69 4.41067 141.989 4.72C142.293 5.024 142.53 5.40267 142.701 5.856C142.872 6.304 142.957 6.816 142.957 7.392C142.957 7.616 142.933 7.76533 142.885 7.84C142.837 7.91467 142.746 7.952 142.613 7.952H137.197C137.208 8.464 137.277 8.90933 137.405 9.288C137.533 9.66667 137.709 9.984 137.933 10.24C138.157 10.4907 138.424 10.68 138.733 10.808C139.042 10.9307 139.389 10.992 139.773 10.992C140.13 10.992 140.437 10.952 140.693 10.872C140.954 10.7867 141.178 10.696 141.365 10.6C141.552 10.504 141.706 10.416 141.829 10.336C141.957 10.2507 142.066 10.208 142.157 10.208C142.274 10.208 142.365 10.2533 142.429 10.344L142.829 10.864C142.653 11.0773 142.442 11.264 142.197 11.424C141.952 11.5787 141.688 11.7067 141.405 11.808C141.128 11.9093 140.84 11.984 140.541 12.032C140.242 12.0853 139.946 12.112 139.653 12.112C139.093 12.112 138.576 12.0187 138.101 11.832C137.632 11.64 137.224 11.3627 136.877 11C136.536 10.632 136.269 10.1787 136.077 9.64C135.885 9.10133 135.789 8.48267 135.789 7.784C135.789 7.21867 135.874 6.69067 136.045 6.2C136.221 5.70933 136.472 5.28533 136.797 4.928C137.122 4.56533 137.52 4.28267 137.989 4.08C138.458 3.872 138.986 3.768 139.573 3.768ZM139.605 4.816C138.917 4.816 138.376 5.016 137.981 5.416C137.586 5.81067 137.341 6.36 137.245 7.064H141.677C141.677 6.73333 141.629 6.432 141.533 6.16C141.442 5.88267 141.306 5.64533 141.125 5.448C140.949 5.24533 140.733 5.09067 140.477 4.984C140.221 4.872 139.93 4.816 139.605 4.816ZM150.346 5.336C150.303 5.39467 150.261 5.44 150.218 5.472C150.175 5.504 150.117 5.52 150.042 5.52C149.962 5.52 149.874 5.488 149.778 5.424C149.682 5.35467 149.562 5.28 149.418 5.2C149.279 5.12 149.106 5.048 148.898 4.984C148.695 4.91467 148.445 4.88 148.146 4.88C147.746 4.88 147.394 4.952 147.09 5.096C146.786 5.23467 146.53 5.43733 146.322 5.704C146.119 5.97067 145.965 6.29333 145.858 6.672C145.757 7.05067 145.706 7.47467 145.706 7.944C145.706 8.43467 145.762 8.872 145.874 9.256C145.986 9.63467 146.143 9.95467 146.346 10.216C146.554 10.472 146.802 10.6693 147.09 10.808C147.383 10.9413 147.711 11.008 148.074 11.008C148.421 11.008 148.706 10.968 148.93 10.888C149.154 10.8027 149.338 10.7093 149.482 10.608C149.631 10.5067 149.754 10.416 149.85 10.336C149.951 10.2507 150.05 10.208 150.146 10.208C150.263 10.208 150.354 10.2533 150.418 10.344L150.818 10.864C150.642 11.0827 150.442 11.2693 150.218 11.424C149.994 11.5787 149.751 11.7093 149.49 11.816C149.234 11.9173 148.965 11.992 148.682 12.04C148.399 12.088 148.111 12.112 147.818 12.112C147.311 12.112 146.839 12.0187 146.402 11.832C145.97 11.6453 145.594 11.376 145.274 11.024C144.954 10.6667 144.703 10.2293 144.522 9.712C144.341 9.19467 144.25 8.60533 144.25 7.944C144.25 7.34133 144.333 6.784 144.498 6.272C144.669 5.76 144.914 5.32 145.234 4.952C145.559 4.57867 145.957 4.288 146.426 4.08C146.901 3.872 147.445 3.768 148.058 3.768C148.629 3.768 149.13 3.86133 149.562 4.048C149.999 4.22933 150.386 4.488 150.722 4.824L150.346 5.336ZM157.499 12C157.36 12 157.253 11.9787 157.179 11.936C157.104 11.888 157.045 11.7973 157.003 11.664L156.843 10.904C156.629 11.096 156.419 11.2693 156.211 11.424C156.008 11.5733 155.795 11.7013 155.571 11.808C155.352 11.9093 155.115 11.9867 154.859 12.04C154.608 12.0987 154.328 12.128 154.019 12.128C153.704 12.128 153.408 12.0853 153.131 12C152.853 11.9093 152.611 11.776 152.403 11.6C152.2 11.424 152.037 11.2027 151.915 10.936C151.797 10.664 151.739 10.344 151.739 9.976C151.739 9.656 151.827 9.34933 152.003 9.056C152.179 8.75733 152.464 8.49333 152.859 8.264C153.253 8.03467 153.768 7.848 154.403 7.704C155.037 7.55467 155.816 7.46933 156.739 7.448V6.816C156.739 6.18667 156.603 5.712 156.331 5.392C156.059 5.06667 155.661 4.904 155.139 4.904C154.787 4.904 154.491 4.94933 154.251 5.04C154.016 5.12533 153.811 5.224 153.635 5.336C153.464 5.44267 153.315 5.54133 153.187 5.632C153.064 5.71733 152.941 5.76 152.819 5.76C152.723 5.76 152.64 5.736 152.571 5.688C152.501 5.63467 152.443 5.57067 152.395 5.496L152.139 5.04C152.587 4.608 153.069 4.28533 153.587 4.072C154.104 3.85867 154.677 3.752 155.307 3.752C155.76 3.752 156.163 3.82667 156.515 3.976C156.867 4.12533 157.163 4.33333 157.403 4.6C157.643 4.86667 157.824 5.18933 157.947 5.568C158.069 5.94667 158.131 6.36267 158.131 6.816V12H157.499ZM154.443 11.128C154.693 11.128 154.923 11.104 155.131 11.056C155.339 11.0027 155.533 10.9307 155.715 10.84C155.901 10.744 156.077 10.6293 156.243 10.496C156.413 10.3573 156.579 10.2027 156.739 10.032V8.352C156.083 8.37333 155.523 8.42667 155.059 8.512C154.6 8.592 154.224 8.69867 153.931 8.832C153.643 8.96533 153.432 9.12267 153.299 9.304C153.171 9.48533 153.107 9.688 153.107 9.912C153.107 10.1253 153.141 10.3093 153.211 10.464C153.28 10.6187 153.373 10.7467 153.491 10.848C153.613 10.944 153.755 11.016 153.915 11.064C154.08 11.1067 154.256 11.128 154.443 11.128ZM162.679 12.128C162.039 12.128 161.545 11.9493 161.199 11.592C160.857 11.2347 160.687 10.72 160.687 10.048V5.088H159.711C159.625 5.088 159.553 5.064 159.495 5.016C159.436 4.96267 159.407 4.88267 159.407 4.776V4.208L160.735 4.04L161.062 1.536C161.079 1.456 161.113 1.392 161.167 1.344C161.225 1.29067 161.3 1.264 161.391 1.264H162.111V4.056H164.455V5.088H162.111V9.952C162.111 10.2933 162.193 10.5467 162.359 10.712C162.524 10.8773 162.737 10.96 162.999 10.96C163.148 10.96 163.276 10.9413 163.383 10.904C163.495 10.8613 163.591 10.816 163.671 10.768C163.751 10.72 163.817 10.6773 163.871 10.64C163.929 10.5973 163.98 10.576 164.023 10.576C164.097 10.576 164.164 10.6213 164.223 10.712L164.639 11.392C164.393 11.6213 164.097 11.8027 163.751 11.936C163.404 12.064 163.047 12.128 162.679 12.128ZM8.79925 24.336C8.75658 24.3947 8.71392 24.44 8.67125 24.472C8.62858 24.504 8.56992 24.52 8.49525 24.52C8.41525 24.52 8.32725 24.488 8.23125 24.424C8.13525 24.3547 8.01525 24.28 7.87125 24.2C7.73258 24.12 7.55925 24.048 7.35125 23.984C7.14858 23.9147 6.89792 23.88 6.59925 23.88C6.19925 23.88 5.84725 23.952 5.54325 24.096C5.23925 24.2347 4.98325 24.4373 4.77525 24.704C4.57258 24.9707 4.41792 25.2933 4.31125 25.672C4.20992 26.0507 4.15925 26.4747 4.15925 26.944C4.15925 27.4347 4.21525 27.872 4.32725 28.256C4.43925 28.6347 4.59658 28.9547 4.79925 29.216C5.00725 29.472 5.25525 29.6693 5.54325 29.808C5.83658 29.9413 6.16458 30.008 6.52725 30.008C6.87392 30.008 7.15925 29.968 7.38325 29.888C7.60725 29.8027 7.79125 29.7093 7.93525 29.608C8.08458 29.5067 8.20725 29.416 8.30325 29.336C8.40458 29.2507 8.50325 29.208 8.59925 29.208C8.71658 29.208 8.80725 29.2533 8.87125 29.344L9.27125 29.864C9.09525 30.0827 8.89525 30.2693 8.67125 30.424C8.44725 30.5787 8.20458 30.7093 7.94325 30.816C7.68725 30.9173 7.41792 30.992 7.13525 31.04C6.85258 31.088 6.56458 31.112 6.27125 31.112C5.76458 31.112 5.29258 31.0187 4.85525 30.832C4.42325 30.6453 4.04725 30.376 3.72725 30.024C3.40725 29.6667 3.15658 29.2293 2.97525 28.712C2.79392 28.1947 2.70325 27.6053 2.70325 26.944C2.70325 26.3413 2.78592 25.784 2.95125 25.272C3.12192 24.76 3.36725 24.32 3.68725 23.952C4.01258 23.5787 4.40992 23.288 4.87925 23.08C5.35392 22.872 5.89792 22.768 6.51125 22.768C7.08192 22.768 7.58325 22.8613 8.01525 23.048C8.45258 23.2293 8.83925 23.488 9.17525 23.824L8.79925 24.336ZM12.1439 22.896V28.064C12.1439 28.6773 12.2825 29.152 12.5599 29.488C12.8425 29.824 13.2719 29.992 13.8479 29.992C14.2639 29.992 14.6559 29.8933 15.0239 29.696C15.3919 29.4987 15.7305 29.224 16.0399 28.872V22.896H17.4639V31H16.6159C16.4132 31 16.2852 30.9013 16.2319 30.704L16.1199 29.832C15.7679 30.2213 15.3732 30.536 14.9359 30.776C14.4985 31.0107 13.9972 31.128 13.4319 31.128C12.9892 31.128 12.5972 31.056 12.2559 30.912C11.9199 30.7627 11.6372 30.5547 11.4079 30.288C11.1785 30.0213 11.0052 29.6987 10.8879 29.32C10.7759 28.9413 10.7199 28.5227 10.7199 28.064V22.896H12.1439ZM19.7218 33.744V22.896H20.5778C20.7804 22.896 20.9058 22.9947 20.9538 23.192L21.0738 24.152C21.4204 23.7307 21.8178 23.392 22.2658 23.136C22.7138 22.88 23.2258 22.752 23.8018 22.752C24.2711 22.752 24.6951 22.8427 25.0738 23.024C25.4524 23.2 25.7751 23.464 26.0418 23.816C26.3084 24.1627 26.5138 24.5947 26.6578 25.112C26.8018 25.6293 26.8738 26.224 26.8738 26.896C26.8738 27.4933 26.7938 28.0507 26.6337 28.568C26.4738 29.08 26.2418 29.5253 25.9378 29.904C25.6391 30.2773 25.2711 30.5733 24.8338 30.792C24.4018 31.0053 23.9138 31.112 23.3698 31.112C22.8738 31.112 22.4471 31.0293 22.0898 30.864C21.7378 30.6987 21.4258 30.464 21.1538 30.16V33.744H19.7218ZM23.3378 23.904C22.8738 23.904 22.4658 24.0107 22.1138 24.224C21.7671 24.4373 21.4471 24.7387 21.1538 25.128V29.048C21.4098 29.4 21.6924 29.648 22.0018 29.792C22.3164 29.936 22.6658 30.008 23.0498 30.008C23.8071 30.008 24.3884 29.7387 24.7938 29.2C25.1991 28.6613 25.4018 27.8933 25.4018 26.896C25.4018 26.368 25.3538 25.9147 25.2578 25.536C25.1671 25.1573 25.0338 24.848 24.8578 24.608C24.6818 24.3627 24.4658 24.184 24.2098 24.072C23.9538 23.96 23.6631 23.904 23.3378 23.904ZM30.1945 22.896V31H28.7705V22.896H30.1945ZM30.4985 20.352C30.4985 20.4907 30.4692 20.6213 30.4105 20.744C30.3572 20.8613 30.2825 20.968 30.1865 21.064C30.0958 21.1547 29.9865 21.2267 29.8585 21.28C29.7358 21.3333 29.6052 21.36 29.4665 21.36C29.3278 21.36 29.1972 21.3333 29.0745 21.28C28.9572 21.2267 28.8532 21.1547 28.7625 21.064C28.6718 20.968 28.5998 20.8613 28.5465 20.744C28.4932 20.6213 28.4665 20.4907 28.4665 20.352C28.4665 20.2133 28.4932 20.0827 28.5465 19.96C28.5998 19.832 28.6718 19.7227 28.7625 19.632C28.8532 19.536 28.9572 19.4613 29.0745 19.408C29.1972 19.3547 29.3278 19.328 29.4665 19.328C29.6052 19.328 29.7358 19.3547 29.8585 19.408C29.9865 19.4613 30.0958 19.536 30.1865 19.632C30.2825 19.7227 30.3572 19.832 30.4105 19.96C30.4692 20.0827 30.4985 20.2133 30.4985 20.352ZM38.3903 31C38.1876 31 38.0596 30.9013 38.0063 30.704L37.8783 29.72C37.5316 30.1413 37.1343 30.48 36.6863 30.736C36.2436 30.9867 35.7343 31.112 35.1583 31.112C34.6943 31.112 34.2729 31.024 33.8943 30.848C33.5156 30.6667 33.1929 30.4027 32.9263 30.056C32.6596 29.7093 32.4543 29.2773 32.3103 28.76C32.1663 28.2427 32.0943 27.648 32.0943 26.976C32.0943 26.3787 32.1743 25.824 32.3343 25.312C32.4943 24.7947 32.7236 24.3467 33.0223 23.968C33.3209 23.5893 33.6863 23.2933 34.1183 23.08C34.5556 22.8613 35.0463 22.752 35.5903 22.752C36.0863 22.752 36.5103 22.8373 36.8623 23.008C37.2196 23.1733 37.5369 23.408 37.8143 23.712V19.216H39.2383V31H38.3903ZM35.6223 29.96C36.0916 29.96 36.4996 29.8533 36.8463 29.64C37.1983 29.4267 37.5209 29.1253 37.8143 28.736V24.824C37.5476 24.472 37.2596 24.224 36.9503 24.08C36.6409 23.936 36.2943 23.864 35.9103 23.864C35.1583 23.864 34.5796 24.1333 34.1743 24.672C33.7689 25.2107 33.5663 25.9787 33.5663 26.976C33.5663 27.504 33.6116 27.9573 33.7023 28.336C33.7929 28.7093 33.9263 29.0187 34.1023 29.264C34.2783 29.504 34.4943 29.68 34.7503 29.792C35.0063 29.904 35.2969 29.96 35.6223 29.96ZM46.6394 31C46.5007 31 46.394 30.9787 46.3194 30.936C46.2447 30.888 46.186 30.7973 46.1434 30.664L45.9834 29.904C45.77 30.096 45.5594 30.2693 45.3514 30.424C45.1487 30.5733 44.9354 30.7013 44.7114 30.808C44.4927 30.9093 44.2554 30.9867 43.9994 31.04C43.7487 31.0987 43.4687 31.128 43.1594 31.128C42.8447 31.128 42.5487 31.0853 42.2714 31C41.994 30.9093 41.7514 30.776 41.5434 30.6C41.3407 30.424 41.178 30.2027 41.0554 29.936C40.938 29.664 40.8794 29.344 40.8794 28.976C40.8794 28.656 40.9674 28.3493 41.1434 28.056C41.3194 27.7573 41.6047 27.4933 41.9994 27.264C42.394 27.0347 42.9087 26.848 43.5434 26.704C44.178 26.5547 44.9567 26.4693 45.8794 26.448V25.816C45.8794 25.1867 45.7434 24.712 45.4714 24.392C45.1994 24.0667 44.802 23.904 44.2794 23.904C43.9274 23.904 43.6314 23.9493 43.3914 24.04C43.1567 24.1253 42.9514 24.224 42.7754 24.336C42.6047 24.4427 42.4554 24.5413 42.3274 24.632C42.2047 24.7173 42.082 24.76 41.9594 24.76C41.8634 24.76 41.7807 24.736 41.7114 24.688C41.642 24.6347 41.5834 24.5707 41.5354 24.496L41.2794 24.04C41.7274 23.608 42.21 23.2853 42.7274 23.072C43.2447 22.8587 43.818 22.752 44.4474 22.752C44.9007 22.752 45.3034 22.8267 45.6554 22.976C46.0074 23.1253 46.3034 23.3333 46.5434 23.6C46.7834 23.8667 46.9647 24.1893 47.0874 24.568C47.21 24.9467 47.2714 25.3627 47.2714 25.816V31H46.6394ZM43.5834 30.128C43.834 30.128 44.0634 30.104 44.2714 30.056C44.4794 30.0027 44.674 29.9307 44.8554 29.84C45.042 29.744 45.218 29.6293 45.3834 29.496C45.554 29.3573 45.7194 29.2027 45.8794 29.032V27.352C45.2234 27.3733 44.6634 27.4267 44.1994 27.512C43.7407 27.592 43.3647 27.6987 43.0714 27.832C42.7834 27.9653 42.5727 28.1227 42.4394 28.304C42.3114 28.4853 42.2474 28.688 42.2474 28.912C42.2474 29.1253 42.282 29.3093 42.3514 29.464C42.4207 29.6187 42.514 29.7467 42.6314 29.848C42.754 29.944 42.8954 30.016 43.0554 30.064C43.2207 30.1067 43.3967 30.128 43.5834 30.128ZM51.8191 31.128C51.1791 31.128 50.6858 30.9493 50.3391 30.592C49.9978 30.2347 49.8271 29.72 49.8271 29.048V24.088H48.8511C48.7658 24.088 48.6938 24.064 48.6351 24.016C48.5765 23.9627 48.5471 23.8827 48.5471 23.776V23.208L49.8751 23.04L50.2031 20.536C50.2191 20.456 50.2538 20.392 50.3071 20.344C50.3658 20.2907 50.4405 20.264 50.5311 20.264H51.2511V23.056H53.5951V24.088H51.2511V28.952C51.2511 29.2933 51.3338 29.5467 51.4991 29.712C51.6645 29.8773 51.8778 29.96 52.1391 29.96C52.2885 29.96 52.4165 29.9413 52.5231 29.904C52.6351 29.8613 52.7311 29.816 52.8111 29.768C52.8911 29.72 52.9578 29.6773 53.0111 29.64C53.0698 29.5973 53.1205 29.576 53.1631 29.576C53.2378 29.576 53.3045 29.6213 53.3631 29.712L53.7791 30.392C53.5338 30.6213 53.2378 30.8027 52.8911 30.936C52.5445 31.064 52.1871 31.128 51.8191 31.128ZM60.2175 31C60.0788 31 59.9722 30.9787 59.8975 30.936C59.8228 30.888 59.7642 30.7973 59.7215 30.664L59.5615 29.904C59.3482 30.096 59.1375 30.2693 58.9295 30.424C58.7268 30.5733 58.5135 30.7013 58.2895 30.808C58.0708 30.9093 57.8335 30.9867 57.5775 31.04C57.3268 31.0987 57.0468 31.128 56.7375 31.128C56.4228 31.128 56.1268 31.0853 55.8495 31C55.5722 30.9093 55.3295 30.776 55.1215 30.6C54.9188 30.424 54.7562 30.2027 54.6335 29.936C54.5162 29.664 54.4575 29.344 54.4575 28.976C54.4575 28.656 54.5455 28.3493 54.7215 28.056C54.8975 27.7573 55.1828 27.4933 55.5775 27.264C55.9722 27.0347 56.4868 26.848 57.1215 26.704C57.7562 26.5547 58.5348 26.4693 59.4575 26.448V25.816C59.4575 25.1867 59.3215 24.712 59.0495 24.392C58.7775 24.0667 58.3802 23.904 57.8575 23.904C57.5055 23.904 57.2095 23.9493 56.9695 24.04C56.7348 24.1253 56.5295 24.224 56.3535 24.336C56.1828 24.4427 56.0335 24.5413 55.9055 24.632C55.7828 24.7173 55.6602 24.76 55.5375 24.76C55.4415 24.76 55.3588 24.736 55.2895 24.688C55.2202 24.6347 55.1615 24.5707 55.1135 24.496L54.8575 24.04C55.3055 23.608 55.7882 23.2853 56.3055 23.072C56.8228 22.8587 57.3962 22.752 58.0255 22.752C58.4788 22.752 58.8815 22.8267 59.2335 22.976C59.5855 23.1253 59.8815 23.3333 60.1215 23.6C60.3615 23.8667 60.5428 24.1893 60.6655 24.568C60.7882 24.9467 60.8495 25.3627 60.8495 25.816V31H60.2175ZM57.1615 30.128C57.4122 30.128 57.6415 30.104 57.8495 30.056C58.0575 30.0027 58.2522 29.9307 58.4335 29.84C58.6202 29.744 58.7962 29.6293 58.9615 29.496C59.1322 29.3573 59.2975 29.2027 59.4575 29.032V27.352C58.8015 27.3733 58.2415 27.4267 57.7775 27.512C57.3188 27.592 56.9428 27.6987 56.6495 27.832C56.3615 27.9653 56.1508 28.1227 56.0175 28.304C55.8895 28.4853 55.8255 28.688 55.8255 28.912C55.8255 29.1253 55.8602 29.3093 55.9295 29.464C55.9988 29.6187 56.0922 29.7467 56.2095 29.848C56.3322 29.944 56.4735 30.016 56.6335 30.064C56.7988 30.1067 56.9748 30.128 57.1615 30.128ZM65.3973 31.128C64.7573 31.128 64.2639 30.9493 63.9173 30.592C63.5759 30.2347 63.4053 29.72 63.4053 29.048V24.088H62.4293C62.3439 24.088 62.2719 24.064 62.2133 24.016C62.1546 23.9627 62.1253 23.8827 62.1253 23.776V23.208L63.4533 23.04L63.7812 20.536C63.7973 20.456 63.8319 20.392 63.8853 20.344C63.9439 20.2907 64.0186 20.264 64.1093 20.264H64.8293V23.056H67.1733V24.088H64.8293V28.952C64.8293 29.2933 64.9119 29.5467 65.0773 29.712C65.2426 29.8773 65.4559 29.96 65.7173 29.96C65.8666 29.96 65.9946 29.9413 66.1013 29.904C66.2133 29.8613 66.3093 29.816 66.3893 29.768C66.4693 29.72 66.5359 29.6773 66.5893 29.64C66.6479 29.5973 66.6986 29.576 66.7413 29.576C66.8159 29.576 66.8826 29.6213 66.9413 29.712L67.3573 30.392C67.1119 30.6213 66.8159 30.8027 66.4693 30.936C66.1226 31.064 65.7653 31.128 65.3973 31.128ZM72.7374 31V22.896H73.5934C73.796 22.896 73.9214 22.9947 73.9694 23.192L74.0814 24.072C74.4334 23.6827 74.828 23.368 75.2654 23.128C75.7027 22.888 76.2067 22.768 76.7774 22.768C77.22 22.768 77.6094 22.8427 77.9454 22.992C78.2867 23.136 78.5694 23.344 78.7934 23.616C79.0227 23.8827 79.196 24.2053 79.3134 24.584C79.4307 24.9627 79.4894 25.3813 79.4894 25.84V31H78.0574V25.84C78.0574 25.2267 77.916 24.752 77.6334 24.416C77.356 24.0747 76.932 23.904 76.3614 23.904C75.9347 23.904 75.5374 24.0053 75.1694 24.208C74.8067 24.4107 74.4734 24.6853 74.1694 25.032V31H72.7374ZM85.0753 22.768C85.6673 22.768 86.2006 22.8667 86.6753 23.064C87.1499 23.2613 87.5553 23.5413 87.8913 23.904C88.2273 24.2667 88.4833 24.7067 88.6593 25.224C88.8406 25.736 88.9313 26.3093 88.9313 26.944C88.9313 27.584 88.8406 28.16 88.6593 28.672C88.4833 29.184 88.2273 29.6213 87.8913 29.984C87.5553 30.3467 87.1499 30.6267 86.6753 30.824C86.2006 31.016 85.6673 31.112 85.0753 31.112C84.4779 31.112 83.9393 31.016 83.4593 30.824C82.9846 30.6267 82.5793 30.3467 82.2433 29.984C81.9073 29.6213 81.6486 29.184 81.4673 28.672C81.2913 28.16 81.2033 27.584 81.2033 26.944C81.2033 26.3093 81.2913 25.736 81.4673 25.224C81.6486 24.7067 81.9073 24.2667 82.2433 23.904C82.5793 23.5413 82.9846 23.2613 83.4593 23.064C83.9393 22.8667 84.4779 22.768 85.0753 22.768ZM85.0753 30C85.8753 30 86.4726 29.7333 86.8673 29.2C87.2619 28.6613 87.4593 27.912 87.4593 26.952C87.4593 25.9867 87.2619 25.2347 86.8673 24.696C86.4726 24.1573 85.8753 23.888 85.0753 23.888C84.6699 23.888 84.3153 23.9573 84.0113 24.096C83.7126 24.2347 83.4619 24.4347 83.2593 24.696C83.0619 24.9573 82.9126 25.28 82.8113 25.664C82.7153 26.0427 82.6673 26.472 82.6673 26.952C82.6673 27.912 82.8646 28.6613 83.2593 29.2C83.6593 29.7333 84.2646 30 85.0753 30ZM90.7374 31V22.896H91.5934C91.796 22.896 91.9214 22.9947 91.9694 23.192L92.0814 24.072C92.4334 23.6827 92.828 23.368 93.2654 23.128C93.7027 22.888 94.2067 22.768 94.7774 22.768C95.22 22.768 95.6094 22.8427 95.9454 22.992C96.2867 23.136 96.5694 23.344 96.7934 23.616C97.0227 23.8827 97.196 24.2053 97.3134 24.584C97.4307 24.9627 97.4894 25.3813 97.4894 25.84V31H96.0574V25.84C96.0574 25.2267 95.916 24.752 95.6334 24.416C95.356 24.0747 94.932 23.904 94.3614 23.904C93.9347 23.904 93.5374 24.0053 93.1694 24.208C92.8067 24.4107 92.4734 24.6853 92.1694 25.032V31H90.7374ZM103.753 33.744V22.896H104.609C104.812 22.896 104.937 22.9947 104.985 23.192L105.105 24.152C105.452 23.7307 105.849 23.392 106.297 23.136C106.745 22.88 107.257 22.752 107.833 22.752C108.302 22.752 108.726 22.8427 109.105 23.024C109.484 23.2 109.806 23.464 110.073 23.816C110.34 24.1627 110.545 24.5947 110.689 25.112C110.833 25.6293 110.905 26.224 110.905 26.896C110.905 27.4933 110.825 28.0507 110.665 28.568C110.505 29.08 110.273 29.5253 109.969 29.904C109.67 30.2773 109.302 30.5733 108.865 30.792C108.433 31.0053 107.945 31.112 107.401 31.112C106.905 31.112 106.478 31.0293 106.121 30.864C105.769 30.6987 105.457 30.464 105.185 30.16V33.744H103.753ZM107.369 23.904C106.905 23.904 106.497 24.0107 106.145 24.224C105.798 24.4373 105.478 24.7387 105.185 25.128V29.048C105.441 29.4 105.724 29.648 106.033 29.792C106.348 29.936 106.697 30.008 107.081 30.008C107.838 30.008 108.42 29.7387 108.825 29.2C109.23 28.6613 109.433 27.8933 109.433 26.896C109.433 26.368 109.385 25.9147 109.289 25.536C109.198 25.1573 109.065 24.848 108.889 24.608C108.713 24.3627 108.497 24.184 108.241 24.072C107.985 23.96 107.694 23.904 107.369 23.904ZM112.722 31V22.896H113.538C113.692 22.896 113.799 22.9253 113.858 22.984C113.916 23.0427 113.956 23.144 113.978 23.288L114.066 24.52C114.322 23.9653 114.636 23.5333 115.01 23.224C115.388 22.9093 115.847 22.752 116.386 22.752C116.556 22.752 116.719 22.7707 116.874 22.808C117.034 22.8453 117.175 22.904 117.298 22.984L117.194 24.048C117.162 24.1813 117.082 24.248 116.954 24.248C116.879 24.248 116.77 24.232 116.626 24.2C116.482 24.168 116.319 24.152 116.138 24.152C115.882 24.152 115.652 24.192 115.45 24.272C115.247 24.3467 115.066 24.4587 114.906 24.608C114.751 24.752 114.612 24.9307 114.49 25.144C114.367 25.3573 114.255 25.6027 114.154 25.88V31H112.722ZM121.638 22.768C122.23 22.768 122.763 22.8667 123.238 23.064C123.712 23.2613 124.118 23.5413 124.454 23.904C124.79 24.2667 125.046 24.7067 125.222 25.224C125.403 25.736 125.494 26.3093 125.494 26.944C125.494 27.584 125.403 28.16 125.222 28.672C125.046 29.184 124.79 29.6213 124.454 29.984C124.118 30.3467 123.712 30.6267 123.238 30.824C122.763 31.016 122.23 31.112 121.638 31.112C121.04 31.112 120.502 31.016 120.022 30.824C119.547 30.6267 119.142 30.3467 118.806 29.984C118.47 29.6213 118.211 29.184 118.03 28.672C117.854 28.16 117.766 27.584 117.766 26.944C117.766 26.3093 117.854 25.736 118.03 25.224C118.211 24.7067 118.47 24.2667 118.806 23.904C119.142 23.5413 119.547 23.2613 120.022 23.064C120.502 22.8667 121.04 22.768 121.638 22.768ZM121.638 30C122.438 30 123.035 29.7333 123.43 29.2C123.824 28.6613 124.022 27.912 124.022 26.952C124.022 25.9867 123.824 25.2347 123.43 24.696C123.035 24.1573 122.438 23.888 121.638 23.888C121.232 23.888 120.878 23.9573 120.574 24.096C120.275 24.2347 120.024 24.4347 119.822 24.696C119.624 24.9573 119.475 25.28 119.374 25.664C119.278 26.0427 119.23 26.472 119.23 26.952C119.23 27.912 119.427 28.6613 119.822 29.2C120.222 29.7333 120.827 30 121.638 30ZM128.804 22.896V31H127.38V22.896H128.804ZM129.108 20.352C129.108 20.4907 129.079 20.6213 129.02 20.744C128.967 20.8613 128.892 20.968 128.796 21.064C128.705 21.1547 128.596 21.2267 128.468 21.28C128.345 21.3333 128.215 21.36 128.076 21.36C127.937 21.36 127.807 21.3333 127.684 21.28C127.567 21.2267 127.463 21.1547 127.372 21.064C127.281 20.968 127.209 20.8613 127.156 20.744C127.103 20.6213 127.076 20.4907 127.076 20.352C127.076 20.2133 127.103 20.0827 127.156 19.96C127.209 19.832 127.281 19.7227 127.372 19.632C127.463 19.536 127.567 19.4613 127.684 19.408C127.807 19.3547 127.937 19.328 128.076 19.328C128.215 19.328 128.345 19.3547 128.468 19.408C128.596 19.4613 128.705 19.536 128.796 19.632C128.892 19.7227 128.967 19.832 129.02 19.96C129.079 20.0827 129.108 20.2133 129.108 20.352ZM137 31C136.797 31 136.669 30.9013 136.616 30.704L136.488 29.72C136.141 30.1413 135.744 30.48 135.296 30.736C134.853 30.9867 134.344 31.112 133.768 31.112C133.304 31.112 132.882 31.024 132.504 30.848C132.125 30.6667 131.802 30.4027 131.536 30.056C131.269 29.7093 131.064 29.2773 130.92 28.76C130.776 28.2427 130.704 27.648 130.704 26.976C130.704 26.3787 130.784 25.824 130.944 25.312C131.104 24.7947 131.333 24.3467 131.632 23.968C131.93 23.5893 132.296 23.2933 132.728 23.08C133.165 22.8613 133.656 22.752 134.2 22.752C134.696 22.752 135.12 22.8373 135.472 23.008C135.829 23.1733 136.146 23.408 136.424 23.712V19.216H137.848V31H137ZM134.232 29.96C134.701 29.96 135.109 29.8533 135.456 29.64C135.808 29.4267 136.13 29.1253 136.424 28.736V24.824C136.157 24.472 135.869 24.224 135.56 24.08C135.25 23.936 134.904 23.864 134.52 23.864C133.768 23.864 133.189 24.1333 132.784 24.672C132.378 25.2107 132.176 25.9787 132.176 26.976C132.176 27.504 132.221 27.9573 132.312 28.336C132.402 28.7093 132.536 29.0187 132.712 29.264C132.888 29.504 133.104 29.68 133.36 29.792C133.616 29.904 133.906 29.96 134.232 29.96ZM143.417 22.768C143.902 22.768 144.35 22.8507 144.761 23.016C145.177 23.176 145.534 23.4107 145.833 23.72C146.137 24.024 146.374 24.4027 146.545 24.856C146.715 25.304 146.801 25.816 146.801 26.392C146.801 26.616 146.777 26.7653 146.729 26.84C146.681 26.9147 146.59 26.952 146.457 26.952H141.041C141.051 27.464 141.121 27.9093 141.249 28.288C141.377 28.6667 141.553 28.984 141.777 29.24C142.001 29.4907 142.267 29.68 142.577 29.808C142.886 29.9307 143.233 29.992 143.617 29.992C143.974 29.992 144.281 29.952 144.537 29.872C144.798 29.7867 145.022 29.696 145.209 29.6C145.395 29.504 145.55 29.416 145.673 29.336C145.801 29.2507 145.91 29.208 146.001 29.208C146.118 29.208 146.209 29.2533 146.273 29.344L146.673 29.864C146.497 30.0773 146.286 30.264 146.041 30.424C145.795 30.5787 145.531 30.7067 145.249 30.808C144.971 30.9093 144.683 30.984 144.385 31.032C144.086 31.0853 143.79 31.112 143.497 31.112C142.937 31.112 142.419 31.0187 141.945 30.832C141.475 30.64 141.067 30.3627 140.721 30C140.379 29.632 140.113 29.1787 139.921 28.64C139.729 28.1013 139.633 27.4827 139.633 26.784C139.633 26.2187 139.718 25.6907 139.889 25.2C140.065 24.7093 140.315 24.2853 140.641 23.928C140.966 23.5653 141.363 23.2827 141.833 23.08C142.302 22.872 142.83 22.768 143.417 22.768ZM143.449 23.816C142.761 23.816 142.219 24.016 141.825 24.416C141.43 24.8107 141.185 25.36 141.089 26.064H145.521C145.521 25.7333 145.473 25.432 145.377 25.16C145.286 24.8827 145.15 24.6453 144.969 24.448C144.793 24.2453 144.577 24.0907 144.321 23.984C144.065 23.872 143.774 23.816 143.449 23.816ZM148.55 31V22.896H149.406C149.609 22.896 149.734 22.9947 149.782 23.192L149.894 24.072C150.246 23.6827 150.641 23.368 151.078 23.128C151.515 22.888 152.019 22.768 152.59 22.768C153.033 22.768 153.422 22.8427 153.758 22.992C154.099 23.136 154.382 23.344 154.606 23.616C154.835 23.8827 155.009 24.2053 155.126 24.584C155.243 24.9627 155.302 25.3813 155.302 25.84V31H153.87V25.84C153.87 25.2267 153.729 24.752 153.446 24.416C153.169 24.0747 152.745 23.904 152.174 23.904C151.747 23.904 151.35 24.0053 150.982 24.208C150.619 24.4107 150.286 24.6853 149.982 25.032V31H148.55ZM159.85 31.128C159.21 31.128 158.717 30.9493 158.37 30.592C158.029 30.2347 157.858 29.72 157.858 29.048V24.088H156.882C156.797 24.088 156.725 24.064 156.666 24.016C156.608 23.9627 156.578 23.8827 156.578 23.776V23.208L157.906 23.04L158.234 20.536C158.25 20.456 158.285 20.392 158.338 20.344C158.397 20.2907 158.472 20.264 158.562 20.264H159.282V23.056H161.626V24.088H159.282V28.952C159.282 29.2933 159.365 29.5467 159.53 29.712C159.696 29.8773 159.909 29.96 160.17 29.96C160.32 29.96 160.448 29.9413 160.554 29.904C160.666 29.8613 160.762 29.816 160.842 29.768C160.922 29.72 160.989 29.6773 161.042 29.64C161.101 29.5973 161.152 29.576 161.194 29.576C161.269 29.576 161.336 29.6213 161.394 29.712L161.81 30.392C161.565 30.6213 161.269 30.8027 160.922 30.936C160.576 31.064 160.218 31.128 159.85 31.128Z" fill="white"/>
</svg>
